<?xml version="1.0" encoding="utf-8"?>
<!-- Generator: Adobe Illustrator 23.0.6, SVG Export Plug-In . SVG Version: 6.00 Build 0)  -->
<svg version="1.1" id="Layer_1" xmlns="http://www.w3.org/2000/svg" xmlns:xlink="http://www.w3.org/1999/xlink" x="0px" y="0px"
	 viewBox="0 0 485.1 488.9" style="enable-background:new 0 0 485.1 488.9;" xml:space="preserve">
<style type="text/css">
	.st0{fill:url(#SVGID_1_);stroke:url(#SVGID_2_);stroke-miterlimit:10;}
	.st1{fill:#FFFFFF;}
	.st2{fill:#E6B536;}
	.st3{fill:#EEEEEE;}
	.st4{opacity:0.2;}
	.st5{display:none;}
	.st6{display:inline;}
	.st7{opacity:0.6;}
	.st8{opacity:0.61;fill:none;stroke:#000000;stroke-width:0.2625;stroke-miterlimit:10;enable-background:new    ;}
	.st9{opacity:0.61;fill:none;stroke:#000000;stroke-miterlimit:10;enable-background:new    ;}
	.st10{opacity:0.61;fill:none;stroke:#000000;stroke-width:0.25;stroke-miterlimit:10;enable-background:new    ;}
	.st11{opacity:0.61;}
	.st12{clip-path:url(#SVGID_4_);}
	.st13{fill:none;stroke:#000000;stroke-miterlimit:10;}
	.st14{opacity:0.3;fill:#F44336;enable-background:new    ;}
	.st15{fill:#664500;}
	.st16{fill:#F4900C;}
</style>
<linearGradient id="SVGID_1_" gradientUnits="userSpaceOnUse" x1="244.4368" y1="492.8984" x2="244.4368" y2="11.5385" gradientTransform="matrix(-1 0 0 1 488.8735 -2)">
	<stop  offset="0" style="stop-color:#FDCB4D"/>
	<stop  offset="1" style="stop-color:#FDCB4D"/>
</linearGradient>
<linearGradient id="SVGID_2_" gradientUnits="userSpaceOnUse" x1="3.2568" y1="248.2316" x2="485.6167" y2="248.2316">
	<stop  offset="0" style="stop-color:#FFFFFF"/>
	<stop  offset="1" style="stop-color:#4B4B4B"/>
</linearGradient>
<path class="st0" d="M3.8,392.4v-350c0-19.3,15.6-34.9,34.9-34.9h411.5c19.3,0,34.9,15.6,34.9,34.9V454c0,19.3-15.6,34.9-34.9,34.9
	H91.6c-14.2,0-27.8-6.4-36.8-17.4l-40.2-48.8C7.6,414.2,3.8,403.5,3.8,392.4z"/>
<path class="st1" d="M84.7,7.6h319.8v211.7c0,7.2-5.9,13.1-13.1,13.1H97.8c-7.2,0-13.1-5.9-13.1-13.1L84.7,7.6L84.7,7.6z"/>
<rect x="84.7" y="7.6" class="st2" width="319.8" height="49"/>
<path class="st3" d="M380.6,488.9V308.8c0-6.7-5.1-11.9-11.8-11.9H120.5c-6.7,0-12,5.2-12,11.9v180.1H380.6z M156.6,318.2
	c0-2.9,2.4-5.2,5.2-5.2h69.5c2.9,0,5.2,2.4,5.2,5.2v149.5c0,2.9-2.4,5.2-5.2,5.2h-69.5c-2.9,0-5.2-2.4-5.2-5.2
	C156.6,467.7,156.6,318.2,156.6,318.2z"/>
<g class="st4">
	<path class="st3" d="M91.6,476.9c-10.7,0-20.8-4.8-27.6-13l-40.2-48.8c-5.2-6.4-8.2-14.4-8.2-22.7v-350c0-12.6,10.3-22.9,22.9-22.9
		h411.6c12.6,0,22.9,10.3,22.9,22.9V454c0,12.6-10.3,22.9-22.9,22.9H91.6 M91.6,488.9h358.6c19.3,0,34.9-15.6,34.9-34.9V42.5
		c0-19.3-15.6-34.9-34.9-34.9H38.7C19.4,7.6,3.8,23.2,3.8,42.5v349.9c0,11.1,3.8,21.8,10.9,30.3l40.1,48.8
		C63.8,482.5,77.4,488.9,91.6,488.9L91.6,488.9z"/>
</g>
<g class="st5">
	<g class="st6">
		<g class="st7">
			<circle class="st8" cx="244.4" cy="234.5" r="28"/>
			<line class="st9" x1="263.9" y1="170.5" x2="263.9" y2="298.5"/>
			<line class="st9" x1="223.9" y1="170.5" x2="223.9" y2="298.5"/>
			<line class="st9" x1="243.9" y1="170.5" x2="243.9" y2="298.5"/>
			<line class="st9" x1="308.4" y1="235" x2="180.4" y2="235"/>
			<line class="st9" x1="308.4" y1="215" x2="180.4" y2="215"/>
			<line class="st9" x1="308.4" y1="254" x2="180.4" y2="254"/>
			<line class="st10" x1="308.4" y1="298.5" x2="180.4" y2="170.5"/>
			<line class="st10" x1="180.4" y1="298.5" x2="308.4" y2="170.5"/>
			<g class="st11">
				<path d="M244.4,174.8c32.9,0,59.7,26.8,59.7,59.7s-26.8,59.7-59.7,59.7s-59.7-26.8-59.7-59.7S211.5,174.8,244.4,174.8
					 M244.4,174.5c-33.1,0-60,26.9-60,60s26.9,60,60,60s60-26.9,60-60S277.6,174.5,244.4,174.5L244.4,174.5z"/>
			</g>
			<path class="st9" d="M295.9,279c0,4.4-3.6,8-8,8H200c-4.4,0-8-3.6-8-8v-87.9c0-4.4,3.6-8,8-8h87.9c4.4,0,8,3.6,8,8V279z"/>
			<path class="st9" d="M287.9,287c0,4.4-3.6,8-8,8h-72c-4.4,0-8-3.6-8-8V183c0-4.4,3.6-8,8-8h72c4.4,0,8,3.6,8,8V287z"/>
			<path class="st9" d="M303.9,268.8c0,5.6-4.6,10.2-10.2,10.2h-99.5c-5.6,0-10.2-4.6-10.2-10.2v-67.5c0-5.6,4.6-10.2,10.2-10.2
				h99.5c5.6,0,10.2,4.6,10.2,10.2V268.8z"/>
		</g>
		<g>
			<g class="st4">
				<g>
					<defs>
						<rect id="SVGID_3_" x="180.4" y="170.5" width="128" height="128"/>
					</defs>
					<clipPath id="SVGID_4_">
						<use xlink:href="#SVGID_3_"  style="overflow:visible;"/>
					</clipPath>
					<g class="st12">
						<g>
							<line class="st13" x1="151.9" y1="330.5" x2="151.9" y2="138.5"/>
							<line class="st13" x1="155.9" y1="330.5" x2="155.9" y2="138.5"/>
							<line class="st13" x1="159.9" y1="330.5" x2="159.9" y2="138.5"/>
							<line class="st13" x1="163.9" y1="330.5" x2="163.9" y2="138.5"/>
							<line class="st13" x1="167.9" y1="330.5" x2="167.9" y2="138.5"/>
							<line class="st13" x1="171.9" y1="330.5" x2="171.9" y2="138.5"/>
							<line class="st13" x1="175.9" y1="330.5" x2="175.9" y2="138.5"/>
							<line class="st13" x1="179.9" y1="330.5" x2="179.9" y2="138.5"/>
							<line class="st13" x1="183.9" y1="330.5" x2="183.9" y2="138.5"/>
							<line class="st13" x1="187.9" y1="330.5" x2="187.9" y2="138.5"/>
							<line class="st13" x1="191.9" y1="330.5" x2="191.9" y2="138.5"/>
							<line class="st13" x1="195.9" y1="330.5" x2="195.9" y2="138.5"/>
							<line class="st13" x1="199.9" y1="330.5" x2="199.9" y2="138.5"/>
							<line class="st13" x1="203.9" y1="330.5" x2="203.9" y2="138.5"/>
							<line class="st13" x1="207.9" y1="330.5" x2="207.9" y2="138.5"/>
							<line class="st13" x1="211.9" y1="330.5" x2="211.9" y2="138.5"/>
							<line class="st13" x1="215.9" y1="330.5" x2="215.9" y2="138.5"/>
							<line class="st13" x1="219.9" y1="330.5" x2="219.9" y2="138.5"/>
							<line class="st13" x1="223.9" y1="330.5" x2="223.9" y2="138.5"/>
							<line class="st13" x1="227.9" y1="330.5" x2="227.9" y2="138.5"/>
							<line class="st13" x1="231.9" y1="330.5" x2="231.9" y2="138.5"/>
							<line class="st13" x1="235.9" y1="330.5" x2="235.9" y2="138.5"/>
							<line class="st13" x1="239.9" y1="330.5" x2="239.9" y2="138.5"/>
							<line class="st13" x1="243.9" y1="330.5" x2="243.9" y2="138.5"/>
							<line class="st13" x1="247.9" y1="330.5" x2="247.9" y2="138.5"/>
							<line class="st13" x1="251.9" y1="330.5" x2="251.9" y2="138.5"/>
							<line class="st13" x1="255.9" y1="330.5" x2="255.9" y2="138.5"/>
							<line class="st13" x1="259.9" y1="330.5" x2="259.9" y2="138.5"/>
							<line class="st13" x1="263.9" y1="330.5" x2="263.9" y2="138.5"/>
							<line class="st13" x1="267.9" y1="330.5" x2="267.9" y2="138.5"/>
							<line class="st13" x1="271.9" y1="330.5" x2="271.9" y2="138.5"/>
							<line class="st13" x1="275.9" y1="330.5" x2="275.9" y2="138.5"/>
							<line class="st13" x1="279.9" y1="330.5" x2="279.9" y2="138.5"/>
							<line class="st13" x1="283.9" y1="330.5" x2="283.9" y2="138.5"/>
							<line class="st13" x1="287.9" y1="330.5" x2="287.9" y2="138.5"/>
							<line class="st13" x1="291.9" y1="330.5" x2="291.9" y2="138.5"/>
							<line class="st13" x1="295.9" y1="330.5" x2="295.9" y2="138.5"/>
							<line class="st13" x1="299.9" y1="330.5" x2="299.9" y2="138.5"/>
							<line class="st13" x1="303.9" y1="330.5" x2="303.9" y2="138.5"/>
							<line class="st13" x1="307.9" y1="330.5" x2="307.9" y2="138.5"/>
							<line class="st13" x1="311.9" y1="330.5" x2="311.9" y2="138.5"/>
							<line class="st13" x1="315.9" y1="330.5" x2="315.9" y2="138.5"/>
							<line class="st13" x1="316.9" y1="336.5" x2="316.9" y2="144.5"/>
							<line class="st13" x1="323.9" y1="330.5" x2="323.9" y2="138.5"/>
							<line class="st13" x1="327.9" y1="330.5" x2="327.9" y2="138.5"/>
							<line class="st13" x1="331.9" y1="330.5" x2="331.9" y2="138.5"/>
							<line class="st13" x1="335.9" y1="330.5" x2="335.9" y2="138.5"/>
						</g>
						<g>
							<line class="st13" x1="148.4" y1="143" x2="340.4" y2="143"/>
							<line class="st13" x1="148.4" y1="147" x2="340.4" y2="147"/>
							<line class="st13" x1="148.4" y1="151" x2="340.4" y2="151"/>
							<line class="st13" x1="148.4" y1="155" x2="340.4" y2="155"/>
							<line class="st13" x1="148.4" y1="159" x2="340.4" y2="159"/>
							<line class="st13" x1="148.4" y1="163" x2="340.4" y2="163"/>
							<line class="st13" x1="148.4" y1="167" x2="340.4" y2="167"/>
							<line class="st13" x1="148.4" y1="171" x2="340.4" y2="171"/>
							<line class="st13" x1="148.4" y1="175" x2="340.4" y2="175"/>
							<line class="st13" x1="148.4" y1="179" x2="340.4" y2="179"/>
							<line class="st13" x1="148.4" y1="183" x2="340.4" y2="183"/>
							<line class="st13" x1="148.4" y1="187" x2="340.4" y2="187"/>
							<line class="st13" x1="148.4" y1="191" x2="340.4" y2="191"/>
							<line class="st13" x1="148.4" y1="195" x2="340.4" y2="195"/>
							<line class="st13" x1="148.4" y1="199" x2="340.4" y2="199"/>
							<line class="st13" x1="148.4" y1="203" x2="340.4" y2="203"/>
							<line class="st13" x1="148.4" y1="207" x2="340.4" y2="207"/>
							<line class="st13" x1="148.4" y1="211" x2="340.4" y2="211"/>
							<line class="st13" x1="148.4" y1="215" x2="340.4" y2="215"/>
							<line class="st13" x1="148.4" y1="219" x2="340.4" y2="219"/>
							<line class="st13" x1="148.4" y1="223" x2="340.4" y2="223"/>
							<line class="st13" x1="148.4" y1="227" x2="340.4" y2="227"/>
							<line class="st13" x1="148.4" y1="231" x2="340.4" y2="231"/>
							<line class="st13" x1="148.4" y1="235" x2="340.4" y2="235"/>
							<line class="st13" x1="148.4" y1="239" x2="340.4" y2="239"/>
							<line class="st13" x1="148.4" y1="243" x2="340.4" y2="243"/>
							<line class="st13" x1="148.4" y1="247" x2="340.4" y2="247"/>
							<line class="st13" x1="148.4" y1="251" x2="340.4" y2="251"/>
							<line class="st13" x1="148.4" y1="255" x2="340.4" y2="255"/>
							<line class="st13" x1="148.4" y1="259" x2="340.4" y2="259"/>
							<line class="st13" x1="148.4" y1="263" x2="340.4" y2="263"/>
							<line class="st13" x1="148.4" y1="267" x2="340.4" y2="267"/>
							<line class="st13" x1="148.4" y1="271" x2="340.4" y2="271"/>
							<line class="st13" x1="148.4" y1="275" x2="340.4" y2="275"/>
							<line class="st13" x1="148.4" y1="279" x2="340.4" y2="279"/>
							<line class="st13" x1="148.4" y1="283" x2="340.4" y2="283"/>
							<line class="st13" x1="148.4" y1="287" x2="340.4" y2="287"/>
							<line class="st13" x1="148.4" y1="291" x2="340.4" y2="291"/>
							<line class="st13" x1="148.4" y1="295" x2="340.4" y2="295"/>
							<line class="st13" x1="148.4" y1="299" x2="340.4" y2="299"/>
							<line class="st13" x1="148.4" y1="303" x2="340.4" y2="303"/>
							<line class="st13" x1="148.4" y1="307" x2="340.4" y2="307"/>
							<line class="st13" x1="148.4" y1="311" x2="340.4" y2="311"/>
							<line class="st13" x1="148.4" y1="315" x2="340.4" y2="315"/>
							<line class="st13" x1="148.4" y1="319" x2="340.4" y2="319"/>
							<line class="st13" x1="148.4" y1="323" x2="340.4" y2="323"/>
							<line class="st13" x1="148.4" y1="327" x2="340.4" y2="327"/>
						</g>
						<path d="M340.4,138.5v192h-192v-192H340.4 M340.4,138.5h-192v192h192V138.5L340.4,138.5z"/>
					</g>
				</g>
			</g>
			<g>
				<rect x="180.4" y="170.5" class="st14" width="4" height="128"/>
				<rect x="304.4" y="170.5" class="st14" width="4" height="128"/>
				<rect x="184.4" y="170.5" class="st14" width="120" height="4"/>
				<rect x="184.4" y="294.5" class="st14" width="120" height="4"/>
			</g>
		</g>
	</g>
</g>
<g id="g36" transform="translate(14.7427,16.4277)">
	<path id="path38" class="st15" d="M153.7,217.4c-1.9-1.8-3.4-4.2-4-7c-1.4-6.7,2.8-13,9.5-14c65.8-9.7,106.7,27.6,108.5,29.2
		c5.2,4.8,5.7,12.6,1.2,17.4c-4.5,4.8-12.2,4.8-17.4,0.1c-1.5-1.3-34-30.2-87.1-22.4C160.4,221.5,156.5,220.1,153.7,217.4"/>
</g>
<g id="g24" transform="translate(15.4063,25.5)">
	<path id="path26" class="st15" d="M152.5,98.4c0,19.8-12.8,35.8-28.6,35.8s-28.6-16-28.6-35.8c0-19.8,12.8-35.8,28.6-35.8
		S152.5,78.7,152.5,98.4"/>
</g>
<g id="g28" transform="translate(26,24.5)">
	<path id="path30" class="st15" d="M313.7,103.7c0,19.8-12.8,35.8-28.6,35.8c-15.8,0-28.6-16-28.6-35.8c0-19.8,12.8-35.8,28.6-35.8
		C300.8,67.9,313.7,84,313.7,103.7"/>
</g>
<g id="g32" transform="translate(9.6709,29.667)">
	<path id="path34" class="st15" d="M76.1,34.6c-2.3-1.2-4.3-3.2-5.6-5.7c-3.1-6.1-0.6-13.3,5.6-15.9c61.1-26.2,110.3-0.6,112.3,0.5
		c6.2,3.3,8.7,10.7,5.6,16.5c-3.1,5.8-10.6,7.8-16.8,4.6c-1.8-0.9-40.6-20.5-89.9,0.7C83.7,36.7,79.5,36.4,76.1,34.6"/>
</g>
<g id="g40" transform="translate(20.4307,25.917)">
	<path id="path42" class="st15" d="M239.5,82c-2.2-1.4-4.1-3.5-5.2-6.1c-2.7-6.3,0.3-13.3,6.7-15.5c62.7-22,110.1,6.9,112.1,8.1
		c5.9,3.7,7.9,11.3,4.5,16.9c-3.5,5.6-11.1,7.1-17.1,3.4c-1.7-1-39.1-23.2-89.8-5.4C246.9,84.7,242.8,84.1,239.5,82"/>
</g>
<g id="g44" transform="translate(17.2764,0.8682)">
	<path id="path46" class="st16" d="M157.4,475.9c0,0,18.1-5.9,20.5-19.4c2.5-13.9-8.9-16.7-8.9-16.7s14.9-3,16.8-19.7
		c1.8-15.8-12.3-19.5-12.3-19.5s13.9-5.7,14.6-22c0.5-13.7-14.3-20.5-14.3-20.5s72.2-17.5,79.6-19.2c7.4-1.7,18.9-8.8,15.3-24.3
		c-3.6-15.5-17.2-16-24.3-14.4c-7.1,1.7-96.6,22.4-127.5,29.6c-3.3,0.8-18.7,4.3-20.6,4.8c-7.7,1.8-11.2-1.6-5.8-7.3
		c7.3-7.7,11.9-16.2,13.6-30.3c1.7-14.8-3.3-33.1-6.2-40.2c-5.4-13.2-14.4-23.6-24.8-27.2C56.6,224,45,234.2,50.8,252
		c8.7,26.6,3,48.3-11.9,61.5c-35.1,30.9-51.4,52.9-40.5,99.9c11.8,51.2,62.7,84.2,113.9,72.3C115,485,157.4,475.9,157.4,475.9"/>
</g>
</svg>
