<?xml version="1.0" encoding="utf-8"?>
<!-- Generator: Adobe Illustrator 23.0.6, SVG Export Plug-In . SVG Version: 6.00 Build 0)  -->
<svg version="1.1" id="Layer_1" xmlns="http://www.w3.org/2000/svg" xmlns:xlink="http://www.w3.org/1999/xlink" x="0px" y="0px"
	 viewBox="0 0 485.1 488.9" style="enable-background:new 0 0 485.1 488.9;" xml:space="preserve">
<style type="text/css">
	.st0{fill:url(#SVGID_1_);stroke:url(#SVGID_2_);stroke-miterlimit:10;}
	.st1{fill:#FFFFFF;}
	.st2{fill:#E6B536;}
	.st3{fill:#EEEEEE;}
	.st4{opacity:0.2;}
	.st5{display:none;}
	.st6{display:inline;}
	.st7{opacity:0.6;}
	.st8{opacity:0.61;fill:none;stroke:#000000;stroke-width:0.2625;stroke-miterlimit:10;enable-background:new    ;}
	.st9{opacity:0.61;fill:none;stroke:#000000;stroke-miterlimit:10;enable-background:new    ;}
	.st10{opacity:0.61;fill:none;stroke:#000000;stroke-width:0.25;stroke-miterlimit:10;enable-background:new    ;}
	.st11{opacity:0.61;}
	.st12{clip-path:url(#SVGID_4_);}
	.st13{fill:none;stroke:#000000;stroke-miterlimit:10;}
	.st14{opacity:0.3;fill:#F44336;enable-background:new    ;}
	.st15{fill-rule:evenodd;clip-rule:evenodd;fill:#F3900D;}
	.st16{fill-rule:evenodd;clip-rule:evenodd;fill:#694803;}
	.st17{fill-rule:evenodd;clip-rule:evenodd;fill:#6B4903;}
</style>
<linearGradient id="SVGID_1_" gradientUnits="userSpaceOnUse" x1="120.4235" y1="-2.8984" x2="120.4235" y2="478.5016" gradientTransform="matrix(-1 0 0 -1 364.8735 488)">
	<stop  offset="0" style="stop-color:#FDCB4D"/>
	<stop  offset="1" style="stop-color:#FDCB4D"/>
</linearGradient>
<linearGradient id="SVGID_2_" gradientUnits="userSpaceOnUse" x1="3.3" y1="241.8" x2="485.6" y2="241.8" gradientTransform="matrix(1 0 0 -1 0 490)">
	<stop  offset="0" style="stop-color:#FFFFFF"/>
	<stop  offset="1" style="stop-color:#4B4B4B"/>
</linearGradient>
<path class="st0" d="M3.8,392.4v-350c0-19.3,15.6-34.9,34.9-34.9h411.5c19.3,0,34.9,15.6,34.9,34.9V454c0,19.3-15.6,34.9-34.9,34.9
	H91.6c-14.2,0-27.8-6.4-36.8-17.4l-40.2-48.8C7.6,414.2,3.8,403.5,3.8,392.4z"/>
<path class="st1" d="M84.7,7.6h319.8v211.7c0,7.2-5.9,13.1-13.1,13.1H97.8c-7.2,0-13.1-5.9-13.1-13.1L84.7,7.6L84.7,7.6z"/>
<rect x="84.7" y="7.6" class="st2" width="319.8" height="49"/>
<path class="st3" d="M380.6,488.9V308.8c0-6.7-5.1-11.9-11.8-11.9H120.5c-6.7,0-12,5.2-12,11.9v180.1H380.6z M156.6,318.2
	c0-2.9,2.4-5.2,5.2-5.2h69.5c2.9,0,5.2,2.4,5.2,5.2v149.5c0,2.9-2.4,5.2-5.2,5.2h-69.5c-2.9,0-5.2-2.4-5.2-5.2V318.2z"/>
<g class="st4">
	<path class="st3" d="M91.6,476.9c-10.7,0-20.8-4.8-27.6-13l-40.2-48.8c-5.2-6.4-8.2-14.4-8.2-22.7v-350c0-12.6,10.3-22.9,22.9-22.9
		h411.6c12.6,0,22.9,10.3,22.9,22.9V454c0,12.6-10.3,22.9-22.9,22.9H91.6 M91.6,488.9h358.6c19.3,0,34.9-15.6,34.9-34.9V42.5
		c0-19.3-15.6-34.9-34.9-34.9H38.7C19.4,7.6,3.8,23.2,3.8,42.5v349.9c0,11.1,3.8,21.8,10.9,30.3l40.1,48.8
		C63.8,482.5,77.4,488.9,91.6,488.9L91.6,488.9z"/>
</g>
<g class="st5">
	<g class="st6">
		<g class="st7">
			<circle class="st8" cx="244.4" cy="234.5" r="28"/>
			<line class="st9" x1="263.9" y1="170.5" x2="263.9" y2="298.5"/>
			<line class="st9" x1="223.9" y1="170.5" x2="223.9" y2="298.5"/>
			<line class="st9" x1="243.9" y1="170.5" x2="243.9" y2="298.5"/>
			<line class="st9" x1="308.4" y1="235" x2="180.4" y2="235"/>
			<line class="st9" x1="308.4" y1="215" x2="180.4" y2="215"/>
			<line class="st9" x1="308.4" y1="254" x2="180.4" y2="254"/>
			<line class="st10" x1="308.4" y1="298.5" x2="180.4" y2="170.5"/>
			<line class="st10" x1="180.4" y1="298.5" x2="308.4" y2="170.5"/>
			<g class="st11">
				<path d="M244.4,174.8c32.9,0,59.7,26.8,59.7,59.7s-26.8,59.7-59.7,59.7s-59.7-26.8-59.7-59.7S211.5,174.8,244.4,174.8
					 M244.4,174.5c-33.1,0-60,26.9-60,60s26.9,60,60,60s60-26.9,60-60S277.6,174.5,244.4,174.5L244.4,174.5z"/>
			</g>
			<path class="st9" d="M295.9,279c0,4.4-3.6,8-8,8H200c-4.4,0-8-3.6-8-8v-87.9c0-4.4,3.6-8,8-8h87.9c4.4,0,8,3.6,8,8V279z"/>
			<path class="st9" d="M287.9,287c0,4.4-3.6,8-8,8h-72c-4.4,0-8-3.6-8-8V183c0-4.4,3.6-8,8-8h72c4.4,0,8,3.6,8,8V287z"/>
			<path class="st9" d="M303.9,268.8c0,5.6-4.6,10.2-10.2,10.2h-99.5c-5.6,0-10.2-4.6-10.2-10.2v-67.5c0-5.6,4.6-10.2,10.2-10.2
				h99.5c5.6,0,10.2,4.6,10.2,10.2V268.8z"/>
		</g>
		<g>
			<g class="st4">
				<g>
					<g>
						<defs>
							<rect id="SVGID_3_" x="180.4" y="170.5" width="128" height="128"/>
						</defs>
						<clipPath id="SVGID_4_">
							<use xlink:href="#SVGID_3_"  style="overflow:visible;"/>
						</clipPath>
						<g class="st12">
							<g>
								<line class="st13" x1="151.9" y1="330.5" x2="151.9" y2="138.5"/>
								<line class="st13" x1="155.9" y1="330.5" x2="155.9" y2="138.5"/>
								<line class="st13" x1="159.9" y1="330.5" x2="159.9" y2="138.5"/>
								<line class="st13" x1="163.9" y1="330.5" x2="163.9" y2="138.5"/>
								<line class="st13" x1="167.9" y1="330.5" x2="167.9" y2="138.5"/>
								<line class="st13" x1="171.9" y1="330.5" x2="171.9" y2="138.5"/>
								<line class="st13" x1="175.9" y1="330.5" x2="175.9" y2="138.5"/>
								<line class="st13" x1="179.9" y1="330.5" x2="179.9" y2="138.5"/>
								<line class="st13" x1="183.9" y1="330.5" x2="183.9" y2="138.5"/>
								<line class="st13" x1="187.9" y1="330.5" x2="187.9" y2="138.5"/>
								<line class="st13" x1="191.9" y1="330.5" x2="191.9" y2="138.5"/>
								<line class="st13" x1="195.9" y1="330.5" x2="195.9" y2="138.5"/>
								<line class="st13" x1="199.9" y1="330.5" x2="199.9" y2="138.5"/>
								<line class="st13" x1="203.9" y1="330.5" x2="203.9" y2="138.5"/>
								<line class="st13" x1="207.9" y1="330.5" x2="207.9" y2="138.5"/>
								<line class="st13" x1="211.9" y1="330.5" x2="211.9" y2="138.5"/>
								<line class="st13" x1="215.9" y1="330.5" x2="215.9" y2="138.5"/>
								<line class="st13" x1="219.9" y1="330.5" x2="219.9" y2="138.5"/>
								<line class="st13" x1="223.9" y1="330.5" x2="223.9" y2="138.5"/>
								<line class="st13" x1="227.9" y1="330.5" x2="227.9" y2="138.5"/>
								<line class="st13" x1="231.9" y1="330.5" x2="231.9" y2="138.5"/>
								<line class="st13" x1="235.9" y1="330.5" x2="235.9" y2="138.5"/>
								<line class="st13" x1="239.9" y1="330.5" x2="239.9" y2="138.5"/>
								<line class="st13" x1="243.9" y1="330.5" x2="243.9" y2="138.5"/>
								<line class="st13" x1="247.9" y1="330.5" x2="247.9" y2="138.5"/>
								<line class="st13" x1="251.9" y1="330.5" x2="251.9" y2="138.5"/>
								<line class="st13" x1="255.9" y1="330.5" x2="255.9" y2="138.5"/>
								<line class="st13" x1="259.9" y1="330.5" x2="259.9" y2="138.5"/>
								<line class="st13" x1="263.9" y1="330.5" x2="263.9" y2="138.5"/>
								<line class="st13" x1="267.9" y1="330.5" x2="267.9" y2="138.5"/>
								<line class="st13" x1="271.9" y1="330.5" x2="271.9" y2="138.5"/>
								<line class="st13" x1="275.9" y1="330.5" x2="275.9" y2="138.5"/>
								<line class="st13" x1="279.9" y1="330.5" x2="279.9" y2="138.5"/>
								<line class="st13" x1="283.9" y1="330.5" x2="283.9" y2="138.5"/>
								<line class="st13" x1="287.9" y1="330.5" x2="287.9" y2="138.5"/>
								<line class="st13" x1="291.9" y1="330.5" x2="291.9" y2="138.5"/>
								<line class="st13" x1="295.9" y1="330.5" x2="295.9" y2="138.5"/>
								<line class="st13" x1="299.9" y1="330.5" x2="299.9" y2="138.5"/>
								<line class="st13" x1="303.9" y1="330.5" x2="303.9" y2="138.5"/>
								<line class="st13" x1="307.9" y1="330.5" x2="307.9" y2="138.5"/>
								<line class="st13" x1="311.9" y1="330.5" x2="311.9" y2="138.5"/>
								<line class="st13" x1="315.9" y1="330.5" x2="315.9" y2="138.5"/>
								<line class="st13" x1="316.9" y1="336.5" x2="316.9" y2="144.5"/>
								<line class="st13" x1="323.9" y1="330.5" x2="323.9" y2="138.5"/>
								<line class="st13" x1="327.9" y1="330.5" x2="327.9" y2="138.5"/>
								<line class="st13" x1="331.9" y1="330.5" x2="331.9" y2="138.5"/>
								<line class="st13" x1="335.9" y1="330.5" x2="335.9" y2="138.5"/>
							</g>
							<g>
								<line class="st13" x1="148.4" y1="143" x2="340.4" y2="143"/>
								<line class="st13" x1="148.4" y1="147" x2="340.4" y2="147"/>
								<line class="st13" x1="148.4" y1="151" x2="340.4" y2="151"/>
								<line class="st13" x1="148.4" y1="155" x2="340.4" y2="155"/>
								<line class="st13" x1="148.4" y1="159" x2="340.4" y2="159"/>
								<line class="st13" x1="148.4" y1="163" x2="340.4" y2="163"/>
								<line class="st13" x1="148.4" y1="167" x2="340.4" y2="167"/>
								<line class="st13" x1="148.4" y1="171" x2="340.4" y2="171"/>
								<line class="st13" x1="148.4" y1="175" x2="340.4" y2="175"/>
								<line class="st13" x1="148.4" y1="179" x2="340.4" y2="179"/>
								<line class="st13" x1="148.4" y1="183" x2="340.4" y2="183"/>
								<line class="st13" x1="148.4" y1="187" x2="340.4" y2="187"/>
								<line class="st13" x1="148.4" y1="191" x2="340.4" y2="191"/>
								<line class="st13" x1="148.4" y1="195" x2="340.4" y2="195"/>
								<line class="st13" x1="148.4" y1="199" x2="340.4" y2="199"/>
								<line class="st13" x1="148.4" y1="203" x2="340.4" y2="203"/>
								<line class="st13" x1="148.4" y1="207" x2="340.4" y2="207"/>
								<line class="st13" x1="148.4" y1="211" x2="340.4" y2="211"/>
								<line class="st13" x1="148.4" y1="215" x2="340.4" y2="215"/>
								<line class="st13" x1="148.4" y1="219" x2="340.4" y2="219"/>
								<line class="st13" x1="148.4" y1="223" x2="340.4" y2="223"/>
								<line class="st13" x1="148.4" y1="227" x2="340.4" y2="227"/>
								<line class="st13" x1="148.4" y1="231" x2="340.4" y2="231"/>
								<line class="st13" x1="148.4" y1="235" x2="340.4" y2="235"/>
								<line class="st13" x1="148.4" y1="239" x2="340.4" y2="239"/>
								<line class="st13" x1="148.4" y1="243" x2="340.4" y2="243"/>
								<line class="st13" x1="148.4" y1="247" x2="340.4" y2="247"/>
								<line class="st13" x1="148.4" y1="251" x2="340.4" y2="251"/>
								<line class="st13" x1="148.4" y1="255" x2="340.4" y2="255"/>
								<line class="st13" x1="148.4" y1="259" x2="340.4" y2="259"/>
								<line class="st13" x1="148.4" y1="263" x2="340.4" y2="263"/>
								<line class="st13" x1="148.4" y1="267" x2="340.4" y2="267"/>
								<line class="st13" x1="148.4" y1="271" x2="340.4" y2="271"/>
								<line class="st13" x1="148.4" y1="275" x2="340.4" y2="275"/>
								<line class="st13" x1="148.4" y1="279" x2="340.4" y2="279"/>
								<line class="st13" x1="148.4" y1="283" x2="340.4" y2="283"/>
								<line class="st13" x1="148.4" y1="287" x2="340.4" y2="287"/>
								<line class="st13" x1="148.4" y1="291" x2="340.4" y2="291"/>
								<line class="st13" x1="148.4" y1="295" x2="340.4" y2="295"/>
								<line class="st13" x1="148.4" y1="299" x2="340.4" y2="299"/>
								<line class="st13" x1="148.4" y1="303" x2="340.4" y2="303"/>
								<line class="st13" x1="148.4" y1="307" x2="340.4" y2="307"/>
								<line class="st13" x1="148.4" y1="311" x2="340.4" y2="311"/>
								<line class="st13" x1="148.4" y1="315" x2="340.4" y2="315"/>
								<line class="st13" x1="148.4" y1="319" x2="340.4" y2="319"/>
								<line class="st13" x1="148.4" y1="323" x2="340.4" y2="323"/>
								<line class="st13" x1="148.4" y1="327" x2="340.4" y2="327"/>
							</g>
							<path d="M340.4,138.5v192h-192v-192H340.4 M340.4,138.5h-192v192h192V138.5L340.4,138.5z"/>
						</g>
					</g>
				</g>
			</g>
			<g>
				<rect x="180.4" y="170.5" class="st14" width="4" height="128"/>
				<rect x="304.4" y="170.5" class="st14" width="4" height="128"/>
				<rect x="184.4" y="170.5" class="st14" width="120" height="4"/>
				<rect x="184.4" y="294.5" class="st14" width="120" height="4"/>
			</g>
		</g>
	</g>
</g>
<path class="st15" d="M408.2,429.2c-4.5,11.4-6.1,23.3-5.4,35.4c0.6,10.4-6.9,16.6-12.2,24c-42.9,0-85.8,0-128.7,0
	c-7-7.4-14-14.8-21.1-22.2c-0.6-34.8-15.5-61.5-45-80.3c-3.8-2.4-6.3-7.7-8.4-12.1c-10.5-21.3-7-35.9,10.3-45.7
	c16.7-9.5,50-2.9,59.1,14.2c8.9,16.7,15,13,26.6,3c42.1-36.3,91.3-59.4,144.9-73.2c17.2-4.4,32.2-1.9,38.6,16.3
	c6.8,19.4-1.3,35.2-19.3,43.3c-14.9,6.7-29.9,13.3-44.6,20.5c-6.2,3.1-15.5,8.3-9.6,15.7C408.1,386.6,399.9,409.7,408.2,429.2z"/>
<g>
	<path class="st16" d="M52.9,69.9L52.9,69.9c23.7-26.4,48-38.6,76.4-38.6c1.6,0,3.2,0,4.8,0.1c6.2,1,12.5,1.6,18.7,2.3
		c19.6,2.1,39.8,4.3,57.6,15.6c12,7.6,15.2,16.4,9.7,26.7c-3.7,7-9.2,10.8-15.8,10.8c-3.7,0-7.6-1.2-11.5-3.5
		c-15.7-9.2-33.2-10.6-50.1-12c-2.1-0.2-4.3-0.3-6.4-0.5c-2-0.2-4-0.3-5.9-0.3c-25.8,0-47,15.7-58.3,43.1l-0.1,0.3l-19,0.8V69.9
		H52.9z"/>
</g>
<path class="st17" d="M297.6,81.5c-5.8,0-10.4-3-14.3-9c-3.1-4.9-4.2-9.7-3.1-14.2c1.3-5.6,5.9-10.8,13.5-15.4
	c8.7-5.3,17.8-10.3,26.5-15.1c3.9-2.1,7.8-4.3,11.7-6.5c4.6-2,9.2-4,13.7-6c10.3-4.6,21-9.3,31.8-13.2c4.7-1.7,9.1-2.6,12.8-2.6
	c8.9,0,14.8,4.8,17.5,14.3c1.6,5.7,1.3,10.5-1,14.4c-2.8,4.8-8.5,8.3-17.3,10.5c-1.5,0.4-2.9,1.2-4.3,2c-0.7,0.4-1.4,0.8-2,1.1l0,0
	H383c-18.5,4.7-35,14.5-50.9,23.9c-5.8,3.4-11.8,7-17.8,10.2C307.2,79.8,302.1,81.5,297.6,81.5z"/>
<g>
	<path class="st17" d="M204,256.8c-6.8,0-12.8-3.5-17.9-10.5c-4-5.5-5.7-11-4.8-16.2c1-6.2,5.6-12.3,13.6-18.1
		c35.9-25.5,78.5-33.5,115.6-39l3.8-0.6c15-2.2,30.5-4.6,46.1-4.6c3.9,0,7.8,0.2,11.5,0.5c15.3,1.2,23.9,8.8,26.1,23v0.1v0.1
		c-2,16.4-11.6,23.8-31.4,24c-43.9,0.4-81.2,6.6-114.2,18.8l-2.4,0.9c-9.9,3.7-20.2,7.5-28.8,14.4
		C215.3,254.4,209.5,256.8,204,256.8z"/>
</g>
<g>
	<path class="st16" d="M149.8,172.7c-3.4,0-7-1.2-10.6-3.5c-13.4-8.6-9.3-21-5.1-29.6c11.8-23.9,29.8-37.1,50.7-37.1
		c5.9,0,11.9,1.1,17.9,3.2c9.2,3.3,14,9.2,15,18.8v0.1v0.1c-2,11.9-8.6,18.8-18.1,18.9c-16.3,0.1-25.8,9.6-33,18.8
		C161.3,169.3,155.7,172.7,149.8,172.7z"/>
	<path class="st1" d="M184.8,103c5.8,0,11.7,1,17.7,3.2c9.3,3.3,13.7,9.4,14.7,18.4c-1.7,10.4-7.3,18.4-17.6,18.5
		c-15.3,0.1-25,8.2-33.4,19c-4.8,6.2-10.3,10.1-16.4,10.1c-3.2,0-6.7-1.1-10.4-3.4c-11.6-7.5-10.4-17.9-4.9-28.9
		C146.3,116,164.4,103,184.8,103 M184.8,102L184.8,102c-10.4,0-20.1,3.2-28.9,9.6c-8.9,6.4-16.3,15.8-22.2,27.7
		c-4.3,8.7-8.4,21.4,5.3,30.2c3.7,2.4,7.4,3.6,10.9,3.6c6.1,0,11.7-3.4,17.2-10.5c12.7-16.3,23.6-18.6,32.6-18.6
		c9.7-0.1,16.5-7.1,18.5-19.3v-0.1v-0.1c-1.1-9.8-5.9-15.9-15.3-19.2C196.8,103.1,190.7,102,184.8,102L184.8,102z"/>
</g>
<g>
	<path class="st16" d="M354.2,119.7c-20.2,0-39-13.1-40.1-28c-0.7-9,0.8-15.3,4.6-19.6c4.8-5.4,13.5-8.3,28.4-9.2
		c1.3-0.1,2.6-0.1,3.9-0.1c19,0,29.7,9.2,30.8,26.6c1,15.2-9.8,29-23.7,30.2C356.8,119.6,355.5,119.7,354.2,119.7z"/>
</g>
</svg>
