<?xml version="1.0" encoding="utf-8"?>
<!-- Generator: Adobe Illustrator 23.0.6, SVG Export Plug-In . SVG Version: 6.00 Build 0)  -->
<svg version="1.1" id="Layer_1" xmlns="http://www.w3.org/2000/svg" xmlns:xlink="http://www.w3.org/1999/xlink" x="0px" y="0px"
	 viewBox="0 0 130.5 130" style="enable-background:new 0 0 130.5 130;" xml:space="preserve">
<style type="text/css">
	.st0{fill:#E25324;}
	.st1{fill:#FBC01B;}
	.st2{fill:#141109;}
	.st3{fill:#932F14;}
	.st4{fill:#FEFDFB;}
</style>
<path class="st0" d="M77.3,86.3c-5.2-0.9-6.7-6.2-8.4-10.5c-1.3-3.3-1.1-5,1.9-6.3c3.1-1.2,8.2-2.8,11.4-3.5c5.7-1.3,5,2.5,6,8.4
	l-0.5,4.2c-0.5,1.4-0.8,2.7-1.4,4C84.8,85.4,82,87.1,77.3,86.3z"/>
<path class="st1" d="M18.4,119.9c-4.7-1.5-9.1-4.1-12.5-7.9c-4.2-4.6-5.2-10.4-1.1-14.3c0.5-0.4,0.6-1.2,1-1.7
	c2.9-3.5,3.1-7.4,1.8-11.7c-2.6-9-4.9-18.2-4.2-27.7c0.6-8.2,2.4-16,6.8-23C17.3,22.2,28.3,16.5,40.9,13c2.5-0.7,8.1-1.7,10.7-1.9
	c2.6-0.2,11.9,0.3,17,0.7c9,0.7,17.3,4,24.8,9.1c2.1,1.5,4.6,3.1,8,6.7c-2.4-1.2-4.5-1.5-5.9-1.8c-2.4-0.4-5.1-0.7-7.2-0.5
	c-1.7,0.2-9.5,2.1-11.6,7.9c-2.1,5.8-1.7,11.6,1.6,17.1c2.5,4.3,6.1,6.2,10.9,6.6c3.9,0.3,7.3-1.2,11-2.2c6.6-1.9,8.1-6.6,8.2-12.4
	c0-2.6-0.4-5.2-0.6-7.8c5.9,8.5,12.2,16.7,15.5,26.7c3,9.1,5.9,18.1,5.2,27.9c-0.1,0-1-0.1-1-0.1l-0.1-0.4c0,0-10.9-4.3-16.7-6.4
	c-4.9-1.7-10.3,0.7-12.4,5c-2.9,5.7-2,11.2,1.7,14.6c6.5,6.2,15.6,7.5,22.9,10.3c-2.1,2.5-2.5,3.4-4.1,4.4c-7.5,4.7-16,6.9-24.6,8.5
	c-3.2,0.6-6.3,1.3-9.5,2c-3.3,0-6.7,0.1-10,0.1c0.4-1.6,0.7-3.3,1.3-4.8c1.1-2.9,2.6-5.8,3.3-8.8c1.1-5.6,1.5-11.2-4-15.2
	c-1.4-1.1-3.1-1.8-4.7-2.7c-4.8-3-13.3-1.1-16.1,5.5c-1.9,4.5-3.5,9.2-4.8,13.9c-0.7,2.7-1.9,5.5-0.3,8.5c1.1-2.3,1.7-4.8,2.3-7.2
	c1.3-5.6,2.4-11.2,5.8-16.1c2.2-3.1,5.6-4.4,8.6-3.8c9.5,2.1,13.7,8,10.7,17.3c-1.4,4.5-3.3,8.8-5.1,13.4c-8.7,0-17.4,1-26-0.1
	C38.4,126.1,25,122,18.4,119.9z M79.2,87.7c5.1-1.7,9.1-2.5,9.9-9.8c0-2,0-3.9,0-5.9c-0.8-6.3-4.3-8.7-9.9-7
	c-2.2,0.7-4.4,1.2-6.6,1.8c-5.8,1.6-6,2.1-5.3,7.6c0,0.3,0,0.7,0.1,1c1.3,5.2,3.5,9.5,9,11.3C77.3,87.1,78.3,87.4,79.2,87.7z
	 M40.4,46.9c-6.2-2.3-11.9-0.5-16.4,3.7c-4.1,3.8-4.6,9.6-3.2,14.8c2.3,8.8,6.6,13.6,16.7,12.4c4.1-0.5,8.1-2.4,12-4.1
	c1.2-0.6,2.2-2.5,2.7-4c2.5-7.8,1.5-14.7-5.8-19.7C44.5,48.6,43.1,46.5,40.4,46.9z"/>
<path class="st2" d="M43.3,47.1c9,3.2,12,14,8.8,22.6c-0.5,1.5-1.4,3.3-2.7,4c-3.7,2.1-7.9,3.6-12,4.1c-10,1.2-14.4-3.5-16.7-12.4
	c-1.3-5.2-0.9-10.9,3.2-14.8C28.5,46.5,34.3,44.1,43.3,47.1c0,0.8,0.5,3.4-1,3c-2.4-0.6-5.3-0.9-6.9-0.8c-5.4,0.4-7.4,4.5-4.6,9.1
	c1.8,2.9,4.6,3.9,7.5,3.9c3,0,6.7,0.5,8.3-3c1.3-3-1.1-8.2-4.3-9.3C43.4,49.9,43.3,47.1,43.3,47.1z"/>
<path d="M71.3,127.1c1.7-4.4,3.7-8.8,5.1-13.3c3-9.4-1.2-15.3-10.7-17.3c-3-0.6-6.4,0.6-8.6,3.8c-3.4,4.9-4.5,10.5-5.8,16.1
	c-0.6,2.4-1.2,4.9-2.3,7.2c-1.6-3-0.4-5.8,0.3-8.5c1.3-4.7,2.7-9.5,4.6-14c3-7.1,11.2-8.6,16.2-5.5c1.5,0.9,3.2,1.7,4.7,2.7
	c5.4,4,5.1,9.7,4,15.4c-0.6,3-2.2,5.8-3.3,8.8c-0.5,1.5-0.9,3.1-1.3,4.7C73.3,127.1,72.3,127.1,71.3,127.1z"/>
<path class="st2" d="M38.8,71.3c-0.6-0.6-1.5-1.9-2.6-2.4c-2.6-1.1-5.3-1.8-8-2.5c-0.8-0.2-1.8,0.1-2.7,0.1c0.1,1.1-0.2,2.7,0.4,3.1
	c2.6,1.9,5.4,3.8,8.4,5.2C36,75.6,38.6,73.7,38.8,71.3z"/>
<path class="st2" d="M94.4,28.2c-1.3,0-2.7,0-4,0.1c-5.4,0.4-7.4,4.5-4.6,9.2c1.8,2.9,4.8,3.3,7.5,4.3 M108.2,35.4
	c0.6,1.8,0.2,6.8,0.2,7.1c-0.1,5.8-1.7,10.4-8.3,12.3c-3.7,1-7.1,2.6-11,2.2c-4.7-0.4-8.4-2.3-10.9-6.6c-3.2-5.5-3.7-11.3-1.6-17.1
	c1.9-5.1,5.9-6.9,11.6-8c2.7-0.5,10.9,0.9,13.1,2.3C104.3,29.5,107.6,33.9,108.2,35.4z M98.1,40.9c3.5-1,4.5-2.6,3.7-6 M94.9,50.8
	c-0.7-0.6-1.5-1.9-2.7-2.4c-2.6-1.1-5.3-1.8-8-2.5c-0.8-0.2-1.8,0.1-2.7,0.2c0.1,1.1-0.1,2.7,0.5,3.1c2.6,1.9,5.4,3.8,8.4,5.1
	C92.2,55.2,94.8,53.2,94.9,50.8z"/>
<path d="M127,88.6c0.2,0.3,0.2,0.6,0,0.9c-1.4-0.2-2.9-0.3-4.2-0.7c-4.8-1.5-9.6-3.3-14.5-4.7c-4.2-1.2-7.3,0.4-9.6,4
	c-2.9,4.6-1.8,10.7,3.8,14.1c4.3,2.6,9.2,4.2,13.8,6.4c1.7,0.8,3.3,2,4.9,3l0.1,0.1c-8.7-1.2-16.4-4.2-22.9-10.3
	c-3.6-3.4-4.5-9-1.7-14.6c2.2-4.2,7.4-6.5,12.4-5C115.3,83.7,121.1,86.3,127,88.6z"/>
<path class="st3" d="M88.7,78.9c-3.1-4.4-2.6-4.9-10.6-6.4c-3.9-0.8-8.6,0.4-9.3,2.5c-1.5,4.1-0.2-1-0.6-2c-1.3-3.3-0.5-2.9,2.6-4.1
	c3.1-1.2,8.2-2.8,11.4-3.5c5.7-1.3,5,2.5,6,8.4C88.2,73.7,89.2,79.6,88.7,78.9z"/>
<g>
	<path class="st2" d="M87.8,74"/>
	<path class="st2" d="M87.6,78.1"/>
	<path class="st2" d="M87.7,78.2c-0.2,1.4-0.9,2.8-1.5,4.1c-1.3,2.9-3.8,3.9-6.8,4l-0.1,1.5c6.5-0.4,9-3.6,9.9-9.7c0-2,0-3.9,0-5.9
		c-0.8-6.3-1.9-9.1-6.9-8.1c-2.2,0.4-7.5,2.1-9.7,2.7c-5.8,1.5-6.1,2.2-5.5,7.8c0.4,3.7,2.8,10.4,9.3,12.3h0
		c0.9,0.3,2.4,0.8,2.8,0.8c0-0.1,0.1-1.3,0.1-1.5c-0.6-0.2-1.2-0.4-1.8-0.5c-4.3-1.1-7.1-5.7-8.4-10.2c-1.3-4.5,0.3-5.6,2.1-6.2
		c0.3-0.1,7.8-2.7,11-3.3c5-1,4.2,1.8,5,4.9C87.8,72.8,88,76.4,87.7,78.2z"/>
</g>
<path class="st1" d="M122.4,112.2c-2-0.8-4.8-2.8-6.5-3.6c-4.6-2.2-9.1-3.8-13.4-6.4c-5.6-3.4-6.7-9.5-3.8-14.1
	c2.3-3.6,5.3-5.3,9.6-4c4.9,1.4,9.6,3.2,14.5,4.7c1.4,0.4,4,0,5.4,0.2c-0.3,5.5-1.5,11.5-2.2,17
	C125.7,108.5,125.2,109.5,122.4,112.2z"/>
<path class="st4" d="M44.3,51.3c1.8,2.1,3.7,5,2.4,8.1c-1.5,3.5-5.3,3-8.3,3c-3,0-5.8-1-7.5-3.9c-2.8-4.6-0.7-8.6,4.6-9.1
	C36.8,49.2,42.5,49.3,44.3,51.3z"/>
<path class="st4" d="M39.9,71.8c0.8,2.3-2.8,4.3-4.7,3.5c-3-1.4-5.7-3.2-8.4-5.2c-0.6-0.4-1.1-2.3-0.4-3.1c0.6-0.7,1.9-0.4,2.7-0.1
	c2.7,0.7,5.5,1.4,8,2.5C38.5,69.9,39.6,71,39.9,71.8z"/>
<path class="st4" d="M93.3,41.7c-2.9-0.3-5.8-1.3-7.5-4.3c-2.8-4.6-0.8-8.7,4.6-9.2c1.3-0.1,3-0.4,4.3-0.1c1.6,0.3,2.8,1.2,4.1,2.1
	c0.6,0.4,1.5,1.3,1.9,1.9c0.5,0.8,0.8,1.8,1,2.7c0.8,3.5-0.1,5.2-3.7,6C96.9,41.2,94.5,41.9,93.3,41.7z"/>
<path class="st4" d="M94.9,50.8c0.9,2.2-2.8,4.4-4.6,3.6c-3-1.3-5.7-3.2-8.4-5.1c-0.6-0.4-1.2-2.2-0.5-3.1c0.6-0.7,1.9-0.5,2.7-0.2
	c2.7,0.7,5.5,1.4,8,2.5C93.4,48.9,94.6,49.9,94.9,50.8z"/>
<path class="st1" d="M127,88.6"/>
</svg>
