<?xml version="1.0" encoding="utf-8"?>
<!-- Generator: Adobe Illustrator 23.0.6, SVG Export Plug-In . SVG Version: 6.00 Build 0)  -->
<svg version="1.1" id="Layer_1" xmlns="http://www.w3.org/2000/svg" xmlns:xlink="http://www.w3.org/1999/xlink" x="0px" y="0px"
	 viewBox="0 0 32 32" style="enable-background:new 0 0 32 32;" xml:space="preserve">
<style type="text/css">
	.st0{fill:none;}
	.st1{fill:none;stroke:#000000;stroke-width:4;stroke-linecap:round;stroke-linejoin:round;stroke-miterlimit:1.5;}
	.st2{fill:none;stroke:#000000;stroke-width:4;stroke-linecap:round;stroke-miterlimit:1.5;}
	.st3{fill-rule:evenodd;clip-rule:evenodd;fill:#78A0BA;}
	.st4{fill-rule:evenodd;clip-rule:evenodd;fill:#EBF1F5;}
	.st5{clip-path:url(#SVGID_2_);}
	.st6{fill-rule:evenodd;clip-rule:evenodd;fill:#7492A5;}
	.st7{fill-rule:evenodd;clip-rule:evenodd;fill:#A9C3D4;}
	.st8{fill-rule:evenodd;clip-rule:evenodd;}
	.st9{fill-rule:evenodd;clip-rule:evenodd;fill:#FFFFFF;}
	.st10{fill-rule:evenodd;clip-rule:evenodd;fill:#BC84A0;}
	.st11{fill-rule:evenodd;clip-rule:evenodd;fill:#662649;}
	.st12{fill-rule:evenodd;clip-rule:evenodd;fill:#46708C;}
</style>
<path class="st0" d="M0,0h32v32H0V0z"/>
<rect class="st0" width="32" height="32"/>
<path class="st1" d="M16,9l9,4l3-7L16,9z"/>
<path class="st2" d="M30,13c0,0-5.6-2.8-10.2-5.1c-3.7-1.8-8-1.8-11.6,0C5.1,9.4,2,11,2,11c0,2.4,1.4,4.7,3.6,5.8
	c2.1,1,4.4,2.2,4.4,2.2s3.3,1.7,5.7,2.9c1.5,0.8,3.2,1.1,4.8,1.2C24.1,23,30,23,30,23V13z"/>
<path class="st1" d="M5.4,16l-3,2.2l1.1,3c0,0,1.7-1.1,1.8-3.2C5.4,16.4,5.4,16,5.4,16z"/>
<path class="st1" d="M22.6,24.8c0,0-1.5-0.6-2.9-1.2c-1.5-0.6-2.7-1.8-3.3-3.2l-1-2.3l10.5,4.2L22.6,24.8z"/>
<path class="st3" d="M2,11c0,0,3.1-1.6,6.2-3.1c3.7-1.8,8-1.8,11.6,0C24.4,10.2,30,13,30,13v10l-6,0L2,11z"/>
<path class="st4" d="M6.1,17l-0.5-0.2C3.4,15.7,2,13.4,2,11h1.7c1.5,0,3.1,0.4,4.4,1C9,12.5,10,13,10.8,13.4c0.8,0.4,1.7,0.7,2.6,1
	c0.5,0.1,1.1,0.3,1.6,0.4c0.7,0.2,1.3,0.5,1.9,1.1L24,23l-3.4,0c-1.7,0-3.3-0.4-4.8-1.2l-5.2-2.7L9,18L6.1,17z"/>
<path class="st3" d="M16,9l9,4l3-7L16,9z"/>
<g>
	<defs>
		<polygon id="SVGID_1_" points="16,9 25,13 28,6 		"/>
	</defs>
	<clipPath id="SVGID_2_">
		<use xlink:href="#SVGID_1_"  style="overflow:visible;"/>
	</clipPath>
	<g class="st5">
		<path class="st4" d="M0,11h4.2c1.2,0,2.4,0.2,3.5,0.6c2.4,0.9,6.9,2.6,10.2,3.8c2.7,1,4.9,2.9,6.4,5.3C26.9,25.2,31,32,31,32v4H0
			V11z"/>
	</g>
</g>
<path class="st6" d="M7,12.5c0-0.1-0.1-0.3-0.1-0.4C6.8,12.1,6.6,12,6.5,12s-0.3,0.1-0.4,0.1C6.1,12.2,6,12.4,6,12.5v1
	c0,0.1,0.1,0.3,0.1,0.4C6.2,13.9,6.4,14,6.5,14s0.3-0.1,0.4-0.1C6.9,13.8,7,13.6,7,13.5C7,13.2,7,12.8,7,12.5z"/>
<path class="st7" d="M3.5,21.2C3.5,21.2,2.4,22,3.5,21.2c1.1-0.8,1.8-2,1.8-3.2L5.4,16l-3,2.2L3.5,21.2z"/>
<g>
	<path class="st8" d="M14.2,10c0-0.8-0.8-1.4-1.8-1.4s-1.8,0.6-1.8,1.4v1.4c0,0.8,0.8,1.4,1.8,1.4s1.8-0.6,1.8-1.4
		C14.2,10.9,14.2,10.4,14.2,10z"/>
	<path class="st9" d="M12.8,9c-0.2,0-0.4,0.3-0.4,0.6c0,0.3,0.2,0.6,0.4,0.6h0.4c0.2,0,0.4-0.3,0.4-0.6c0-0.3-0.2-0.6-0.4-0.6
		C13.1,9,12.9,9,12.8,9z"/>
	<path class="st9" d="M11.6,11.7c-0.2-0.1-0.4-0.1-0.5,0s0,0.3,0.2,0.5l0.4,0.2c0.2,0.1,0.4,0.1,0.5,0c0.1-0.1,0.1-0.3-0.1-0.4
		C12,11.9,11.7,11.7,11.6,11.7z"/>
</g>
<g>
	<path class="st10" d="M15.7,14.7c0,0,1.1,3.1-0.1,4c-0.9,0.7-1.8,0.8-3,0.8l-2.2-0.4L10.3,19L6.1,17L15.7,14.7z"/>
	<path class="st11" d="M9,17.2c-0.2,0.2-0.6,1-0.6,1L6.1,17l9.7-2.3c0,0,0.7,1.9,0.4,3.1c-0.1,0.4-0.9-0.8-1.7-1
		C13,16.2,10.9,16,9,17.2z"/>
</g>
<path class="st12" d="M22.6,24.8c0,0-1.5-0.6-2.9-1.2c-1.5-0.6-2.6-1.8-3.2-3.2l-1-2.3l10.5,4.3L22.6,24.8z"/>
</svg>
